<svg width="100" height="100" viewBox="0 0 100 100" xmlns="http://www.w3.org/2000/svg">
  <!-- Background circle -->
  <circle cx="50" cy="50" r="48" fill="white" stroke="#DC2626" stroke-width="2"/>

  <!-- Brick R - Vertical left side -->
  <rect x="25" y="20" width="12" height="8" fill="#DC2626" stroke="#991B1B" stroke-width="1"/>
  <rect x="25" y="30" width="12" height="8" fill="#DC2626" stroke="#991B1B" stroke-width="1"/>
  <rect x="25" y="40" width="12" height="8" fill="#DC2626" stroke="#991B1B" stroke-width="1"/>
  <rect x="25" y="50" width="12" height="8" fill="#DC2626" stroke="#991B1B" stroke-width="1"/>
  <rect x="25" y="60" width="12" height="8" fill="#DC2626" stroke="#991B1B" stroke-width="1"/>
  <rect x="25" y="70" width="12" height="8" fill="#DC2626" stroke="#991B1B" stroke-width="1"/>

  <!-- Top horizontal part of R -->
  <rect x="39" y="20" width="12" height="8" fill="#DC2626" stroke="#991B1B" stroke-width="1"/>
  <rect x="53" y="20" width="12" height="8" fill="#DC2626" stroke="#991B1B" stroke-width="1"/>

  <!-- Right side top vertical -->
  <rect x="53" y="30" width="12" height="8" fill="#DC2626" stroke="#991B1B" stroke-width="1"/>

  <!-- Middle horizontal part of R -->
  <rect x="39" y="40" width="12" height="8" fill="#DC2626" stroke="#991B1B" stroke-width="1"/>
  <rect x="53" y="40" width="12" height="8" fill="#DC2626" stroke="#991B1B" stroke-width="1"/>

  <!-- Diagonal leg of R -->
  <rect x="39" y="50" width="12" height="8" fill="#DC2626" stroke="#991B1B" stroke-width="1"/>
  <rect x="53" y="60" width="12" height="8" fill="#DC2626" stroke="#991B1B" stroke-width="1"/>
  <rect x="53" y="70" width="12" height="8" fill="#DC2626" stroke="#991B1B" stroke-width="1"/>

  <!-- Top curve of R -->
  <rect x="53" y="30" width="12" height="8" fill="#DC2626" stroke="#991B1B" stroke-width="1"/>
</svg>
